<?xml version="1.0" encoding="UTF-8" standalone="no"?>
<svg
   xmlns:dc="http://purl.org/dc/elements/1.1/"
   xmlns:cc="http://creativecommons.org/ns#"
   xmlns:rdf="http://www.w3.org/1999/02/22-rdf-syntax-ns#"
   xmlns:svg="http://www.w3.org/2000/svg"
   xmlns="http://www.w3.org/2000/svg"
   xmlns:sodipodi="http://sodipodi.sourceforge.net/DTD/sodipodi-0.dtd"
   xmlns:inkscape="http://www.inkscape.org/namespaces/inkscape"
   sodipodi:docname="Alpine F1 Team 2021 Logoé.svg"
   inkscape:version="1.0 (4035a4fb49, 2020-05-01)"
   id="svg8"
   version="1.1"
   viewBox="0 0 1000.0001 898.66864"
   height="898.66864mm"
   width="1000.0001mm">
  <defs
     id="defs2" />
  <sodipodi:namedview
     fit-margin-bottom="0"
     fit-margin-right="0"
     fit-margin-left="0"
     fit-margin-top="0"
     inkscape:window-maximized="1"
     inkscape:window-y="-11"
     inkscape:window-x="-11"
     inkscape:window-height="986"
     inkscape:window-width="1920"
     showgrid="false"
     inkscape:document-rotation="0"
     inkscape:current-layer="layer1"
     inkscape:document-units="mm"
     inkscape:cy="1859.8857"
     inkscape:cx="1285.4279"
     inkscape:zoom="0.083949881"
     inkscape:pageshadow="2"
     inkscape:pageopacity="0.0"
     borderopacity="1.0"
     bordercolor="#666666"
     pagecolor="#ffffff"
     id="base" />
  <metadata
     id="metadata5">
    <rdf:RDF>
      <cc:Work
         rdf:about="">
        <dc:format>image/svg+xml</dc:format>
        <dc:type
           rdf:resource="http://purl.org/dc/dcmitype/StillImage" />
        <dc:title></dc:title>
      </cc:Work>
    </rdf:RDF>
  </metadata>
  <g
     transform="translate(-62.635744,-108.49286)"
     id="layer1"
     inkscape:groupmode="layer"
     inkscape:label="Calque 1">
    <g
       id="g203">
      <path
         d="M 872.44173,108.49286 456.65116,431.12619 H 290.495 L 333.59544,293.15198 62.635744,500.76431 H 362.76014 L 218.73965,612.3209 H 354.93824 L 499.19006,500.76431 H 745.28018 L 706.18746,612.3209 h 110.11267 l 38.90714,-111.55659 h 122.83276 l 84.59567,-67.02325 v -2.61487 H 875.71329 L 981.50455,108.49286 Z M 824.99248,251.51361 765.88229,431.12619 H 588.93568 Z"
         style="opacity:1;fill:#000000;fill-opacity:1;stroke:none;stroke-width:0.812018px;stroke-linecap:butt;stroke-linejoin:miter;stroke-opacity:1"
         id="path43"
         sodipodi:nodetypes="ccccccccccccccccccccccc" />
      <path
         sodipodi:nodetypes="cccccccccc"
         d="M 728.28692,702.18531 V 787.724 h 21.2355 v -63.33359 l 119.32703,65.70092 0.15098,-87.90602 h -21.63355 v 52.91937 l -95.8496,-52.91937 z"
         style="fill:#000000;fill-opacity:1;stroke:none;stroke-width:0.436629px;stroke-linecap:butt;stroke-linejoin:miter;stroke-opacity:1"
         id="path947" />
      <rect
         y="702.18555"
         x="631.63489"
         height="85.538597"
         width="23.022007"
         id="rect935"
         style="fill:#000000;fill-opacity:1;stroke:none;stroke-width:56.1089;stroke-linecap:round;paint-order:stroke fill markers" />
      <path
         d="m 434.16201,702.17697 v 42.77341 42.77362 h 11.51014 11.50931 l 0.0507,-14.28506 0.0507,-14.28518 40.78398,-0.0676 c 43.21373,-0.0676 42.17225,-0.0451 47.43327,-1.04441 6.04303,-1.14062 10.15442,-2.69867 14.28935,-5.41515 2.56606,-1.6857 5.55958,-4.69285 6.89151,-6.92306 0.80781,-1.35435 1.84817,-3.423 1.72007,-3.423 -0.0676,0 -0.0225,-0.11717 0.10139,-0.26927 0.32673,-0.39432 0.95766,-2.35121 1.40967,-4.37243 1.22569,-5.4815 0.95879,-11.82242 -0.70303,-16.73779 -1.15234,-3.40801 -3.25637,-6.81839 -5.66177,-9.17681 -1.82935,-1.79375 -4.68553,-3.83164 -7.02953,-5.0162 -1.30895,-0.66135 -6.2242,-2.49723 -7.29396,-2.72391 -0.46305,-0.1014 -1.6911,-0.36166 -2.72807,-0.58586 -5.37966,-1.16091 -1.59309,-1.08835 -59.39112,-1.15584 z m 23.02201,15.27776 37.85719,0.0676 c 32.62398,0.0676 38.07687,0.1183 39.44519,0.37405 8.05253,1.51242 11.05405,4.67674 11.35227,11.9681 0.1183,2.89776 -0.20618,4.66131 -1.24675,6.7668 -1.70643,3.45353 -5.32919,5.63 -11.29448,6.78561 -1.39345,0.26927 -6.17553,0.31771 -38.71251,0.37968 -20.4177,0.0338 -37.18568,0.0108 -37.26196,-0.0676 -0.0755,-0.0789 -0.1396,-6.02117 -0.1396,-13.2108 z"
         style="fill:#000000;fill-opacity:1;stroke-width:0.198467"
         id="path901" />
      <path
         sodipodi:nodetypes="cccccccccccc"
         d="m 143.19832,699.5068 -80.562545,88.21382 h 26.955942 l 14.382363,-16.27383 h 78.49195 l 14.25361,16.27811 h 27.1316 z m 0.0135,27.9836 25.47889,28.67761 h -50.91856 z"
         style="fill:#000000;fill-opacity:1;stroke:none;stroke-width:0.436629px;stroke-linecap:butt;stroke-linejoin:miter;stroke-opacity:1"
         id="path903" />
      <path
         sodipodi:nodetypes="cccccccccccccccccccccccc"
         id="path930"
         d="m 942.62983,702.18531 v 42.76946 42.76923 h 57.90637 57.9064 l 4.1932,-15.28215 h -48.4916 -48.49233 v -10.22078 -10.22055 h 46.93673 46.937 v -7.7409 -7.73988 h -46.937 -46.93673 v -9.52653 -9.52575 h 46.93673 46.937 v -7.64119 -7.64096 h -58.448 z"
         style="fill:#000000;fill-opacity:1;stroke-width:0.198467" />
      <path
         sodipodi:nodetypes="ccccccc"
         id="path924"
         d="m 274.00145,702.18531 v 85.53959 l 105.04622,-0.10139 6.41046,-15.08353 -88.43466,-0.1014 v -70.25552 z"
         style="fill:#000000;fill-opacity:1;stroke-width:0.198467" />
      <path
         id="rect52"
         style="opacity:1;fill:#006fba;fill-opacity:1;stroke:none;stroke-width:24.0418;stroke-linecap:round;stroke-dashoffset:131.528;paint-order:stroke fill markers"
         d="m 490.01946,988.41965 -20.61543,18.74185 h 64.58006 l 20.61544,-18.74185 z"
         sodipodi:nodetypes="ccccc" />
      <path
         id="path93"
         style="font-style:normal;font-variant:normal;font-weight:normal;font-stretch:normal;font-size:7.45943px;line-height:1.25;font-family:Arial;-inkscape-font-specification:Arial;fill:#000000;stroke-width:2.07816"
         d="m 326.95821,920.53666 v -58.34178 h 40.94148 v 6.88485 h -32.9105 v 18.06755 h 28.48103 v 6.88485 h -28.48103 v 26.50453 z" />
      <path
         id="path97"
         style="font-style:normal;font-variant:normal;font-weight:normal;font-stretch:normal;font-size:7.45943px;line-height:1.25;font-family:Arial;-inkscape-font-specification:Arial;fill:#000000;stroke-width:2.04814"
         d="m 533.56163,920.53666 v -51.45693 h -19.42106 v -6.88485 h 46.72333 v 6.88485 h -19.5016 v 51.45693 z" />
      <path
         id="path99"
         style="font-style:normal;font-variant:normal;font-weight:normal;font-stretch:normal;font-size:7.45943px;line-height:1.25;font-family:Arial;-inkscape-font-specification:Arial;fill:#000000;stroke-width:1.96052"
         d="m 590.62414,920.53666 v -58.34178 h 39.05307 v 6.88485 h -31.9057 v 17.8686 h 29.87942 v 6.84496 h -29.87942 v 19.85852 h 33.15835 v 6.88485 z" />
      <path
         id="path101"
         style="font-style:normal;font-variant:normal;font-weight:normal;font-stretch:normal;font-size:7.45943px;line-height:1.25;font-family:Arial;-inkscape-font-specification:Arial;fill:#000000;stroke-width:2.07237"
         d="m 654.30161,920.53666 23.17675,-58.34178 h 8.60374 l 24.69987,58.34178 h -9.09785 l -7.03939,-17.66964 h -25.23499 l -6.62788,17.66964 z m 17.41335,-23.95752 h 20.45969 l -6.29841,-16.15741 q -2.8817,-7.3623 -4.2813,-12.09818 -1.15273,5.61135 -3.25231,11.14306 z" />
      <path
         id="path103"
         style="font-style:normal;font-variant:normal;font-weight:normal;font-stretch:normal;font-size:7.45943px;line-height:1.25;font-family:Arial;-inkscape-font-specification:Arial;fill:#000000;stroke-width:2.11292"
         d="m 738.4459,920.53666 v -58.34178 h 12.49564 l 14.84912,41.30889 q 2.05404,5.77054 2.99546,8.63591 1.07069,-3.18375 3.33785,-9.35231 l 15.02044,-40.59249 h 11.16899 v 58.34178 h -8.00234 v -48.83039 l -18.22981,48.83039 h -7.48875 l -18.14437,-49.6661 v 49.6661 z" />
      <path
         id="rect112"
         style="fill:#000000;stroke:none;stroke-width:22.0257;stroke-linecap:round;stroke-dashoffset:131.528;paint-order:stroke fill markers"
         d="m 394.21908,861.95758 v 7.11968 h 13.5415 v 51.45957 h 7.70516 v -58.57925 z"
         sodipodi:nodetypes="ccccccc" />
      <text
         xml:space="preserve"
         style="font-size:30.8798px;line-height:1.25;font-family:'Britannic Bold';-inkscape-font-specification:'Britannic Bold, ';fill:#000000;stroke-width:0.771993"
         x="441.34161"
         y="880.24756"
         id="text134"><tspan
           sodipodi:role="line"
           id="tspan132"
           x="441.34161"
           y="880.24756"
           style="font-style:normal;font-variant:normal;font-weight:normal;font-stretch:normal;font-family:Arial;-inkscape-font-specification:Arial;fill:#000000;stroke-width:0.771993">®</tspan></text>
      <path
         sodipodi:nodetypes="ccccc"
         d="m 591.28754,988.41964 -20.61535,18.74186 h 64.58002 l 20.61537,-18.74186 z"
         style="opacity:1;fill:#db090a;fill-opacity:1;stroke:none;stroke-width:24.0418;stroke-linecap:round;stroke-dashoffset:131.528;paint-order:stroke fill markers"
         id="rect52-5" />
      <path
         style="opacity:1;fill:#ffffff;stroke:none;stroke-width:2.99775px;stroke-linecap:butt;stroke-linejoin:miter;stroke-opacity:1"
         d="m 554.59953,988.41964 -20.61548,18.74186 h 36.68814 l 20.61535,-18.74186 z"
         id="path151" />
    </g>
  </g>
</svg>
